<svg xmlns="http://www.w3.org/2000/svg" version="1.1" xmlns:xlink="http://www.w3.org/1999/xlink" xmlns:svgjs="http://svgjs.com/svgjs" width="1440" height="560" preserveAspectRatio="none" viewBox="0 0 1440 560"><g mask="url(&quot;#SvgjsMask1010&quot;)" fill="none"><path d="M-73.97 364.15L-73.97 364.15" stroke="rgba(114, 201, 184, 0.25)" stroke-width="1.5"></path><path d="M-73.97 364.15L-105.94 529.51" stroke="rgba(114, 201, 184, 0.25)" stroke-width="1.5"></path><path d="M-73.97 364.15L109.39 347.39" stroke="rgba(114, 201, 184, 0.25)" stroke-width="1.5"></path><path d="M-73.97 364.15L44.62 553.68" stroke="rgba(114, 201, 184, 0.25)" stroke-width="1.5"></path><path d="M-73.97 364.15L193.9 367.97" stroke="rgba(114, 201, 184, 0.25)" stroke-width="1.5"></path><path d="M-105.94 529.51L-105.94 529.51" stroke="rgba(114, 201, 184, 0.25)" stroke-width="1.5"></path><path d="M-105.94 529.51L44.62 553.68" stroke="rgba(114, 201, 184, 0.25)" stroke-width="1.5"></path><path d="M-105.94 529.51L-42.97 679.97" stroke="rgba(114, 201, 184, 0.25)" stroke-width="1.5"></path><path d="M-42.97 679.97L-42.97 679.97" stroke="rgba(114, 201, 184, 0.25)" stroke-width="1.5"></path><path d="M-42.97 679.97L73.47 672.15" stroke="rgba(114, 201, 184, 0.25)" stroke-width="1.5"></path><path d="M-42.97 679.97L44.62 553.68" stroke="rgba(114, 201, 184, 0.25)" stroke-width="1.5"></path><path d="M-42.97 679.97L189.5 684.18" stroke="rgba(114, 201, 184, 0.25)" stroke-width="1.5"></path><path d="M-42.97 679.97L197.18 494.09" stroke="rgba(114, 201, 184, 0.25)" stroke-width="1.5"></path><path d="M-42.97 679.97L-73.97 364.15" stroke="rgba(114, 201, 184, 0.25)" stroke-width="1.5"></path><path d="M109.39 347.39L109.39 347.39" stroke="rgba(114, 201, 184, 0.25)" stroke-width="1.5"></path><path d="M109.39 347.39L193.9 367.97" stroke="rgba(114, 201, 184, 0.25)" stroke-width="1.5"></path><path d="M109.39 347.39L197.18 494.09" stroke="rgba(114, 201, 184, 0.25)" stroke-width="1.5"></path><path d="M109.39 347.39L44.62 553.68" stroke="rgba(114, 201, 184, 0.25)" stroke-width="1.5"></path><path d="M44.62 553.68L44.62 553.68" stroke="rgba(114, 201, 184, 0.25)" stroke-width="1.5"></path><path d="M44.62 553.68L73.47 672.15" stroke="rgba(114, 201, 184, 0.25)" stroke-width="1.5"></path><path d="M73.47 672.15L73.47 672.15" stroke="rgba(114, 201, 184, 0.25)" stroke-width="1.5"></path><path d="M73.47 672.15L189.5 684.18" stroke="rgba(114, 201, 184, 0.25)" stroke-width="1.5"></path><path d="M193.9 367.97L193.9 367.97" stroke="rgba(114, 201, 184, 0.25)" stroke-width="1.5"></path><path d="M193.9 367.97L197.18 494.09" stroke="rgba(114, 201, 184, 0.25)" stroke-width="1.5"></path><path d="M193.9 367.97L362.27 389.3" stroke="rgba(114, 201, 184, 0.25)" stroke-width="1.5"></path><path d="M197.18 494.09L197.18 494.09" stroke="rgba(114, 201, 184, 0.25)" stroke-width="1.5"></path><path d="M197.18 494.09L44.62 553.68" stroke="rgba(114, 201, 184, 0.25)" stroke-width="1.5"></path><path d="M197.18 494.09L189.5 684.18" stroke="rgba(114, 201, 184, 0.25)" stroke-width="1.5"></path><path d="M197.18 494.09L389.01 495.51" stroke="rgba(114, 201, 184, 0.25)" stroke-width="1.5"></path><path d="M189.5 684.18L189.5 684.18" stroke="rgba(114, 201, 184, 0.25)" stroke-width="1.5"></path><path d="M189.5 684.18L44.62 553.68" stroke="rgba(114, 201, 184, 0.25)" stroke-width="1.5"></path><path d="M189.5 684.18L408.02 699.14" stroke="rgba(114, 201, 184, 0.25)" stroke-width="1.5"></path><path d="M189.5 684.18L389.01 495.51" stroke="rgba(114, 201, 184, 0.25)" stroke-width="1.5"></path><path d="M362.27 389.3L362.27 389.3" stroke="rgba(114, 201, 184, 0.25)" stroke-width="1.5"></path><path d="M362.27 389.3L389.01 495.51" stroke="rgba(114, 201, 184, 0.25)" stroke-width="1.5"></path><path d="M389.01 495.51L389.01 495.51" stroke="rgba(114, 201, 184, 0.25)" stroke-width="1.5"></path><path d="M389.01 495.51L552.99 535.35" stroke="rgba(114, 201, 184, 0.25)" stroke-width="1.5"></path><path d="M389.01 495.51L531.6 358.95" stroke="rgba(114, 201, 184, 0.25)" stroke-width="1.5"></path><path d="M389.01 495.51L408.02 699.14" stroke="rgba(114, 201, 184, 0.25)" stroke-width="1.5"></path><path d="M408.02 699.14L408.02 699.14" stroke="rgba(114, 201, 184, 0.25)" stroke-width="1.5"></path><path d="M408.02 699.14L551.59 668.77" stroke="rgba(114, 201, 184, 0.25)" stroke-width="1.5"></path><path d="M408.02 699.14L552.99 535.35" stroke="rgba(114, 201, 184, 0.25)" stroke-width="1.5"></path><path d="M408.02 699.14L197.18 494.09" stroke="rgba(114, 201, 184, 0.25)" stroke-width="1.5"></path><path d="M408.02 699.14L362.27 389.3" stroke="rgba(114, 201, 184, 0.25)" stroke-width="1.5"></path><path d="M531.6 358.95L531.6 358.95" stroke="rgba(114, 201, 184, 0.25)" stroke-width="1.5"></path><path d="M531.6 358.95L651.28 407.92" stroke="rgba(114, 201, 184, 0.25)" stroke-width="1.5"></path><path d="M552.99 535.35L552.99 535.35" stroke="rgba(114, 201, 184, 0.25)" stroke-width="1.5"></path><path d="M552.99 535.35L551.59 668.77" stroke="rgba(114, 201, 184, 0.25)" stroke-width="1.5"></path><path d="M552.99 535.35L685.45 505.01" stroke="rgba(114, 201, 184, 0.25)" stroke-width="1.5"></path><path d="M551.59 668.77L551.59 668.77" stroke="rgba(114, 201, 184, 0.25)" stroke-width="1.5"></path><path d="M551.59 668.77L685.45 505.01" stroke="rgba(114, 201, 184, 0.25)" stroke-width="1.5"></path><path d="M551.59 668.77L389.01 495.51" stroke="rgba(114, 201, 184, 0.25)" stroke-width="1.5"></path><path d="M551.59 668.77L801.55 679.27" stroke="rgba(114, 201, 184, 0.25)" stroke-width="1.5"></path><path d="M643.19 229.25L643.19 229.25" stroke="rgba(114, 201, 184, 0.25)" stroke-width="1.5"></path><path d="M643.19 229.25L531.6 358.95" stroke="rgba(114, 201, 184, 0.25)" stroke-width="1.5"></path><path d="M643.19 229.25L651.28 407.92" stroke="rgba(114, 201, 184, 0.25)" stroke-width="1.5"></path><path d="M643.19 229.25L854.76 222.58" stroke="rgba(114, 201, 184, 0.25)" stroke-width="1.5"></path><path d="M643.19 229.25L849.69 345.14" stroke="rgba(114, 201, 184, 0.25)" stroke-width="1.5"></path><path d="M651.28 407.92L651.28 407.92" stroke="rgba(114, 201, 184, 0.25)" stroke-width="1.5"></path><path d="M651.28 407.92L685.45 505.01" stroke="rgba(114, 201, 184, 0.25)" stroke-width="1.5"></path><path d="M651.28 407.92L552.99 535.35" stroke="rgba(114, 201, 184, 0.25)" stroke-width="1.5"></path><path d="M651.28 407.92L796.82 516.73" stroke="rgba(114, 201, 184, 0.25)" stroke-width="1.5"></path><path d="M651.28 407.92L849.69 345.14" stroke="rgba(114, 201, 184, 0.25)" stroke-width="1.5"></path><path d="M685.45 505.01L685.45 505.01" stroke="rgba(114, 201, 184, 0.25)" stroke-width="1.5"></path><path d="M685.45 505.01L796.82 516.73" stroke="rgba(114, 201, 184, 0.25)" stroke-width="1.5"></path><path d="M854.76 222.58L854.76 222.58" stroke="rgba(114, 201, 184, 0.25)" stroke-width="1.5"></path><path d="M854.76 222.58L849.69 345.14" stroke="rgba(114, 201, 184, 0.25)" stroke-width="1.5"></path><path d="M849.69 345.14L849.69 345.14" stroke="rgba(114, 201, 184, 0.25)" stroke-width="1.5"></path><path d="M849.69 345.14L1004.42 408.02" stroke="rgba(114, 201, 184, 0.25)" stroke-width="1.5"></path><path d="M849.69 345.14L948.24 488.71" stroke="rgba(114, 201, 184, 0.25)" stroke-width="1.5"></path><path d="M796.82 516.73L796.82 516.73" stroke="rgba(114, 201, 184, 0.25)" stroke-width="1.5"></path><path d="M796.82 516.73L948.24 488.71" stroke="rgba(114, 201, 184, 0.25)" stroke-width="1.5"></path><path d="M796.82 516.73L801.55 679.27" stroke="rgba(114, 201, 184, 0.25)" stroke-width="1.5"></path><path d="M796.82 516.73L849.69 345.14" stroke="rgba(114, 201, 184, 0.25)" stroke-width="1.5"></path><path d="M801.55 679.27L801.55 679.27" stroke="rgba(114, 201, 184, 0.25)" stroke-width="1.5"></path><path d="M801.55 679.27L954.14 693.29" stroke="rgba(114, 201, 184, 0.25)" stroke-width="1.5"></path><path d="M801.55 679.27L685.45 505.01" stroke="rgba(114, 201, 184, 0.25)" stroke-width="1.5"></path><path d="M801.55 679.27L948.24 488.71" stroke="rgba(114, 201, 184, 0.25)" stroke-width="1.5"></path><path d="M801.55 679.27L552.99 535.35" stroke="rgba(114, 201, 184, 0.25)" stroke-width="1.5"></path><path d="M947.22 -101.53L947.22 -101.53" stroke="rgba(114, 201, 184, 0.25)" stroke-width="1.5"></path><path d="M947.22 -101.53L982.06 66.64" stroke="rgba(114, 201, 184, 0.25)" stroke-width="1.5"></path><path d="M947.22 -101.53L1137.47 69.47" stroke="rgba(114, 201, 184, 0.25)" stroke-width="1.5"></path><path d="M947.22 -101.53L1276.52 -51.71" stroke="rgba(114, 201, 184, 0.25)" stroke-width="1.5"></path><path d="M982.06 66.64L982.06 66.64" stroke="rgba(114, 201, 184, 0.25)" stroke-width="1.5"></path><path d="M982.06 66.64L1137.47 69.47" stroke="rgba(114, 201, 184, 0.25)" stroke-width="1.5"></path><path d="M1004.42 408.02L1004.42 408.02" stroke="rgba(114, 201, 184, 0.25)" stroke-width="1.5"></path><path d="M1004.42 408.02L948.24 488.71" stroke="rgba(114, 201, 184, 0.25)" stroke-width="1.5"></path><path d="M1004.42 408.02L1151.62 398.66" stroke="rgba(114, 201, 184, 0.25)" stroke-width="1.5"></path><path d="M948.24 488.71L948.24 488.71" stroke="rgba(114, 201, 184, 0.25)" stroke-width="1.5"></path><path d="M954.14 693.29L954.14 693.29" stroke="rgba(114, 201, 184, 0.25)" stroke-width="1.5"></path><path d="M954.14 693.29L1090.94 555.7" stroke="rgba(114, 201, 184, 0.25)" stroke-width="1.5"></path><path d="M954.14 693.29L948.24 488.71" stroke="rgba(114, 201, 184, 0.25)" stroke-width="1.5"></path><path d="M1137.47 69.47L1137.47 69.47" stroke="rgba(114, 201, 184, 0.25)" stroke-width="1.5"></path><path d="M1137.47 69.47L1106.81 194.68" stroke="rgba(114, 201, 184, 0.25)" stroke-width="1.5"></path><path d="M1137.47 69.47L1309.59 71.54" stroke="rgba(114, 201, 184, 0.25)" stroke-width="1.5"></path><path d="M1137.47 69.47L1249.63 213.84" stroke="rgba(114, 201, 184, 0.25)" stroke-width="1.5"></path><path d="M1137.47 69.47L1276.52 -51.71" stroke="rgba(114, 201, 184, 0.25)" stroke-width="1.5"></path><path d="M1106.81 194.68L1106.81 194.68" stroke="rgba(114, 201, 184, 0.25)" stroke-width="1.5"></path><path d="M1106.81 194.68L1249.63 213.84" stroke="rgba(114, 201, 184, 0.25)" stroke-width="1.5"></path><path d="M1106.81 194.68L982.06 66.64" stroke="rgba(114, 201, 184, 0.25)" stroke-width="1.5"></path><path d="M1106.81 194.68L1151.62 398.66" stroke="rgba(114, 201, 184, 0.25)" stroke-width="1.5"></path><path d="M1106.81 194.68L1004.42 408.02" stroke="rgba(114, 201, 184, 0.25)" stroke-width="1.5"></path><path d="M1151.62 398.66L1151.62 398.66" stroke="rgba(114, 201, 184, 0.25)" stroke-width="1.5"></path><path d="M1151.62 398.66L1275.8 402.95" stroke="rgba(114, 201, 184, 0.25)" stroke-width="1.5"></path><path d="M1151.62 398.66L1090.94 555.7" stroke="rgba(114, 201, 184, 0.25)" stroke-width="1.5"></path><path d="M1151.62 398.66L1277.58 540.23" stroke="rgba(114, 201, 184, 0.25)" stroke-width="1.5"></path><path d="M1090.94 555.7L1090.94 555.7" stroke="rgba(114, 201, 184, 0.25)" stroke-width="1.5"></path><path d="M1090.94 555.7L1161.02 651.3" stroke="rgba(114, 201, 184, 0.25)" stroke-width="1.5"></path><path d="M1090.94 555.7L948.24 488.71" stroke="rgba(114, 201, 184, 0.25)" stroke-width="1.5"></path><path d="M1161.02 651.3L1161.02 651.3" stroke="rgba(114, 201, 184, 0.25)" stroke-width="1.5"></path><path d="M1161.02 651.3L1259.76 658.52" stroke="rgba(114, 201, 184, 0.25)" stroke-width="1.5"></path><path d="M1161.02 651.3L1277.58 540.23" stroke="rgba(114, 201, 184, 0.25)" stroke-width="1.5"></path><path d="M1161.02 651.3L954.14 693.29" stroke="rgba(114, 201, 184, 0.25)" stroke-width="1.5"></path><path d="M1161.02 651.3L1151.62 398.66" stroke="rgba(114, 201, 184, 0.25)" stroke-width="1.5"></path><path d="M1276.52 -51.71L1276.52 -51.71" stroke="rgba(114, 201, 184, 0.25)" stroke-width="1.5"></path><path d="M1276.52 -51.71L1309.59 71.54" stroke="rgba(114, 201, 184, 0.25)" stroke-width="1.5"></path><path d="M1276.52 -51.71L1414.23 64.84" stroke="rgba(114, 201, 184, 0.25)" stroke-width="1.5"></path><path d="M1309.59 71.54L1309.59 71.54" stroke="rgba(114, 201, 184, 0.25)" stroke-width="1.5"></path><path d="M1309.59 71.54L1414.23 64.84" stroke="rgba(114, 201, 184, 0.25)" stroke-width="1.5"></path><path d="M1249.63 213.84L1249.63 213.84" stroke="rgba(114, 201, 184, 0.25)" stroke-width="1.5"></path><path d="M1275.8 402.95L1275.8 402.95" stroke="rgba(114, 201, 184, 0.25)" stroke-width="1.5"></path><path d="M1275.8 402.95L1277.58 540.23" stroke="rgba(114, 201, 184, 0.25)" stroke-width="1.5"></path><path d="M1275.8 402.95L1391.77 498.77" stroke="rgba(114, 201, 184, 0.25)" stroke-width="1.5"></path><path d="M1275.8 402.95L1461.57 395.95" stroke="rgba(114, 201, 184, 0.25)" stroke-width="1.5"></path><path d="M1275.8 402.95L1249.63 213.84" stroke="rgba(114, 201, 184, 0.25)" stroke-width="1.5"></path><path d="M1275.8 402.95L1418.96 230.8" stroke="rgba(114, 201, 184, 0.25)" stroke-width="1.5"></path><path d="M1277.58 540.23L1277.58 540.23" stroke="rgba(114, 201, 184, 0.25)" stroke-width="1.5"></path><path d="M1277.58 540.23L1259.76 658.52" stroke="rgba(114, 201, 184, 0.25)" stroke-width="1.5"></path><path d="M1277.58 540.23L1391.77 498.77" stroke="rgba(114, 201, 184, 0.25)" stroke-width="1.5"></path><path d="M1259.76 658.52L1259.76 658.52" stroke="rgba(114, 201, 184, 0.25)" stroke-width="1.5"></path><path d="M1259.76 658.52L1090.94 555.7" stroke="rgba(114, 201, 184, 0.25)" stroke-width="1.5"></path><path d="M1259.76 658.52L1460.22 652.02" stroke="rgba(114, 201, 184, 0.25)" stroke-width="1.5"></path><path d="M1259.76 658.52L1391.77 498.77" stroke="rgba(114, 201, 184, 0.25)" stroke-width="1.5"></path><path d="M1259.76 658.52L1275.8 402.95" stroke="rgba(114, 201, 184, 0.25)" stroke-width="1.5"></path><path d="M1459.4 -42.67L1459.4 -42.67" stroke="rgba(114, 201, 184, 0.25)" stroke-width="1.5"></path><path d="M1459.4 -42.67L1414.23 64.84" stroke="rgba(114, 201, 184, 0.25)" stroke-width="1.5"></path><path d="M1459.4 -42.67L1575.54 -73.85" stroke="rgba(114, 201, 184, 0.25)" stroke-width="1.5"></path><path d="M1459.4 -42.67L1541.76 77.78" stroke="rgba(114, 201, 184, 0.25)" stroke-width="1.5"></path><path d="M1459.4 -42.67L1276.52 -51.71" stroke="rgba(114, 201, 184, 0.25)" stroke-width="1.5"></path><path d="M1459.4 -42.67L1309.59 71.54" stroke="rgba(114, 201, 184, 0.25)" stroke-width="1.5"></path><path d="M1414.23 64.84L1414.23 64.84" stroke="rgba(114, 201, 184, 0.25)" stroke-width="1.5"></path><path d="M1418.96 230.8L1418.96 230.8" stroke="rgba(114, 201, 184, 0.25)" stroke-width="1.5"></path><path d="M1418.96 230.8L1546.71 227.9" stroke="rgba(114, 201, 184, 0.25)" stroke-width="1.5"></path><path d="M1418.96 230.8L1414.23 64.84" stroke="rgba(114, 201, 184, 0.25)" stroke-width="1.5"></path><path d="M1418.96 230.8L1249.63 213.84" stroke="rgba(114, 201, 184, 0.25)" stroke-width="1.5"></path><path d="M1418.96 230.8L1461.57 395.95" stroke="rgba(114, 201, 184, 0.25)" stroke-width="1.5"></path><path d="M1461.57 395.95L1461.57 395.95" stroke="rgba(114, 201, 184, 0.25)" stroke-width="1.5"></path><path d="M1461.57 395.95L1581.88 371" stroke="rgba(114, 201, 184, 0.25)" stroke-width="1.5"></path><path d="M1461.57 395.95L1391.77 498.77" stroke="rgba(114, 201, 184, 0.25)" stroke-width="1.5"></path><path d="M1391.77 498.77L1391.77 498.77" stroke="rgba(114, 201, 184, 0.25)" stroke-width="1.5"></path><path d="M1460.22 652.02L1460.22 652.02" stroke="rgba(114, 201, 184, 0.25)" stroke-width="1.5"></path><path d="M1460.22 652.02L1595.63 699.32" stroke="rgba(114, 201, 184, 0.25)" stroke-width="1.5"></path><path d="M1460.22 652.02L1391.77 498.77" stroke="rgba(114, 201, 184, 0.25)" stroke-width="1.5"></path><path d="M1460.22 652.02L1553.86 488.97" stroke="rgba(114, 201, 184, 0.25)" stroke-width="1.5"></path><path d="M1460.22 652.02L1277.58 540.23" stroke="rgba(114, 201, 184, 0.25)" stroke-width="1.5"></path><path d="M1460.22 652.02L1461.57 395.95" stroke="rgba(114, 201, 184, 0.25)" stroke-width="1.5"></path><path d="M1575.54 -73.85L1575.54 -73.85" stroke="rgba(114, 201, 184, 0.25)" stroke-width="1.5"></path><path d="M1575.54 -73.85L1541.76 77.78" stroke="rgba(114, 201, 184, 0.25)" stroke-width="1.5"></path><path d="M1541.76 77.78L1541.76 77.78" stroke="rgba(114, 201, 184, 0.25)" stroke-width="1.5"></path><path d="M1541.76 77.78L1414.23 64.84" stroke="rgba(114, 201, 184, 0.25)" stroke-width="1.5"></path><path d="M1541.76 77.78L1546.71 227.9" stroke="rgba(114, 201, 184, 0.25)" stroke-width="1.5"></path><path d="M1541.76 77.78L1418.96 230.8" stroke="rgba(114, 201, 184, 0.25)" stroke-width="1.5"></path><path d="M1541.76 77.78L1309.59 71.54" stroke="rgba(114, 201, 184, 0.25)" stroke-width="1.5"></path><path d="M1546.71 227.9L1546.71 227.9" stroke="rgba(114, 201, 184, 0.25)" stroke-width="1.5"></path><path d="M1546.71 227.9L1581.88 371" stroke="rgba(114, 201, 184, 0.25)" stroke-width="1.5"></path><path d="M1546.71 227.9L1461.57 395.95" stroke="rgba(114, 201, 184, 0.25)" stroke-width="1.5"></path><path d="M1581.88 371L1581.88 371" stroke="rgba(114, 201, 184, 0.25)" stroke-width="1.5"></path><path d="M1581.88 371L1553.86 488.97" stroke="rgba(114, 201, 184, 0.25)" stroke-width="1.5"></path><path d="M1581.88 371L1418.96 230.8" stroke="rgba(114, 201, 184, 0.25)" stroke-width="1.5"></path><path d="M1581.88 371L1391.77 498.77" stroke="rgba(114, 201, 184, 0.25)" stroke-width="1.5"></path><path d="M1581.88 371L1541.76 77.78" stroke="rgba(114, 201, 184, 0.25)" stroke-width="1.5"></path><path d="M1553.86 488.97L1553.86 488.97" stroke="rgba(114, 201, 184, 0.25)" stroke-width="1.5"></path><path d="M1553.86 488.97L1461.57 395.95" stroke="rgba(114, 201, 184, 0.25)" stroke-width="1.5"></path><path d="M1553.86 488.97L1391.77 498.77" stroke="rgba(114, 201, 184, 0.25)" stroke-width="1.5"></path><path d="M1595.63 699.32L1595.63 699.32" stroke="rgba(114, 201, 184, 0.25)" stroke-width="1.5"></path><path d="M1595.63 699.32L1553.86 488.97" stroke="rgba(114, 201, 184, 0.25)" stroke-width="1.5"></path><path d="M1595.63 699.32L1391.77 498.77" stroke="rgba(114, 201, 184, 0.25)" stroke-width="1.5"></path><path d="M1595.63 699.32L1581.88 371" stroke="rgba(114, 201, 184, 0.25)" stroke-width="1.5"></path><path d="M1595.63 699.32L1461.57 395.95" stroke="rgba(114, 201, 184, 0.25)" stroke-width="1.5"></path><circle r="5" cx="-73.97" cy="364.15" fill="rgba(114, 201, 184, 0.25)"></circle><circle r="5" cx="-105.94" cy="529.51" fill="rgba(114, 201, 184, 0.25)"></circle><circle r="5" cx="-42.97" cy="679.97" fill="rgba(114, 201, 184, 0.25)"></circle><circle r="5" cx="109.39" cy="347.39" fill="rgba(114, 201, 184, 0.25)"></circle><circle r="5" cx="44.62" cy="553.68" fill="rgba(114, 201, 184, 0.25)"></circle><circle r="5" cx="73.47" cy="672.15" fill="rgba(114, 201, 184, 0.25)"></circle><circle r="5" cx="193.9" cy="367.97" fill="rgba(114, 201, 184, 0.25)"></circle><circle r="5" cx="197.18" cy="494.09" fill="rgba(114, 201, 184, 0.25)"></circle><circle r="5" cx="189.5" cy="684.18" fill="rgba(114, 201, 184, 0.25)"></circle><circle r="5" cx="362.27" cy="389.3" fill="rgba(114, 201, 184, 0.25)"></circle><circle r="5" cx="389.01" cy="495.51" fill="rgba(114, 201, 184, 0.25)"></circle><circle r="5" cx="408.02" cy="699.14" fill="rgba(114, 201, 184, 0.25)"></circle><circle r="5" cx="531.6" cy="358.95" fill="rgba(114, 201, 184, 0.25)"></circle><circle r="5" cx="552.99" cy="535.35" fill="rgba(114, 201, 184, 0.25)"></circle><circle r="5" cx="551.59" cy="668.77" fill="rgba(114, 201, 184, 0.25)"></circle><circle r="5" cx="643.19" cy="229.25" fill="rgba(114, 201, 184, 0.25)"></circle><circle r="5" cx="651.28" cy="407.92" fill="rgba(114, 201, 184, 0.25)"></circle><circle r="5" cx="685.45" cy="505.01" fill="rgba(114, 201, 184, 0.25)"></circle><circle r="5" cx="854.76" cy="222.58" fill="rgba(114, 201, 184, 0.25)"></circle><circle r="5" cx="849.69" cy="345.14" fill="rgba(114, 201, 184, 0.25)"></circle><circle r="5" cx="796.82" cy="516.73" fill="rgba(114, 201, 184, 0.25)"></circle><circle r="5" cx="801.55" cy="679.27" fill="rgba(114, 201, 184, 0.25)"></circle><circle r="5" cx="947.22" cy="-101.53" fill="rgba(114, 201, 184, 0.25)"></circle><circle r="5" cx="982.06" cy="66.64" fill="rgba(114, 201, 184, 0.25)"></circle><circle r="5" cx="1004.42" cy="408.02" fill="rgba(114, 201, 184, 0.25)"></circle><circle r="5" cx="948.24" cy="488.71" fill="rgba(114, 201, 184, 0.25)"></circle><circle r="5" cx="954.14" cy="693.29" fill="rgba(114, 201, 184, 0.25)"></circle><circle r="5" cx="1137.47" cy="69.47" fill="rgba(114, 201, 184, 0.25)"></circle><circle r="5" cx="1106.81" cy="194.68" fill="rgba(114, 201, 184, 0.25)"></circle><circle r="5" cx="1151.62" cy="398.66" fill="rgba(114, 201, 184, 0.25)"></circle><circle r="5" cx="1090.94" cy="555.7" fill="rgba(114, 201, 184, 0.25)"></circle><circle r="5" cx="1161.02" cy="651.3" fill="rgba(114, 201, 184, 0.25)"></circle><circle r="5" cx="1276.52" cy="-51.71" fill="rgba(114, 201, 184, 0.25)"></circle><circle r="5" cx="1309.59" cy="71.54" fill="rgba(114, 201, 184, 0.25)"></circle><circle r="5" cx="1249.63" cy="213.84" fill="rgba(114, 201, 184, 0.25)"></circle><circle r="5" cx="1275.8" cy="402.95" fill="rgba(114, 201, 184, 0.25)"></circle><circle r="5" cx="1277.58" cy="540.23" fill="rgba(114, 201, 184, 0.25)"></circle><circle r="5" cx="1259.76" cy="658.52" fill="rgba(114, 201, 184, 0.25)"></circle><circle r="5" cx="1459.4" cy="-42.67" fill="rgba(114, 201, 184, 0.25)"></circle><circle r="5" cx="1414.23" cy="64.84" fill="rgba(114, 201, 184, 0.25)"></circle><circle r="5" cx="1418.96" cy="230.8" fill="rgba(114, 201, 184, 0.25)"></circle><circle r="5" cx="1461.57" cy="395.95" fill="rgba(114, 201, 184, 0.25)"></circle><circle r="5" cx="1391.77" cy="498.77" fill="rgba(114, 201, 184, 0.25)"></circle><circle r="5" cx="1460.22" cy="652.02" fill="rgba(114, 201, 184, 0.25)"></circle><circle r="5" cx="1575.54" cy="-73.85" fill="rgba(114, 201, 184, 0.25)"></circle><circle r="5" cx="1541.76" cy="77.78" fill="rgba(114, 201, 184, 0.25)"></circle><circle r="5" cx="1546.71" cy="227.9" fill="rgba(114, 201, 184, 0.25)"></circle><circle r="5" cx="1581.88" cy="371" fill="rgba(114, 201, 184, 0.25)"></circle><circle r="5" cx="1553.86" cy="488.97" fill="rgba(114, 201, 184, 0.25)"></circle><circle r="5" cx="1595.63" cy="699.32" fill="rgba(114, 201, 184, 0.25)"></circle><path d="M-84.87 685.24L-84.87 685.24" stroke="hsla(168.29999999999995, 44.6%, 80.3%, 0.42)" stroke-width="1.5"></path><path d="M-84.87 685.24L49.86 651.41" stroke="hsla(168.29999999999995, 44.6%, 80.3%, 0.42)" stroke-width="1.5"></path><path d="M-84.87 685.24L75.59 497.8" stroke="hsla(168.29999999999995, 44.6%, 80.3%, 0.42)" stroke-width="1.5"></path><path d="M-84.87 685.24L206.93 683.99" stroke="hsla(168.29999999999995, 44.6%, 80.3%, 0.42)" stroke-width="1.5"></path><path d="M-84.87 685.24L239.16 526.9" stroke="hsla(168.29999999999995, 44.6%, 80.3%, 0.42)" stroke-width="1.5"></path><path d="M561.63 405.74L561.63 405.74" stroke="hsla(168.29999999999995, 44.6%, 80.3%, 0.42)" stroke-width="1.5"></path><path d="M561.63 405.74L509.49 542.42" stroke="hsla(168.29999999999995, 44.6%, 80.3%, 0.42)" stroke-width="1.5"></path><path d="M561.63 405.74L681.6 546.91" stroke="hsla(168.29999999999995, 44.6%, 80.3%, 0.42)" stroke-width="1.5"></path><path d="M561.63 405.74L349.85 549.38" stroke="hsla(168.29999999999995, 44.6%, 80.3%, 0.42)" stroke-width="1.5"></path><path d="M561.63 405.74L668.71 645.37" stroke="hsla(168.29999999999995, 44.6%, 80.3%, 0.42)" stroke-width="1.5"></path><path d="M979.25 379.56L979.25 379.56" stroke="hsla(168.29999999999995, 44.6%, 80.3%, 0.42)" stroke-width="1.5"></path><path d="M979.25 379.56L1001.12 491.22" stroke="hsla(168.29999999999995, 44.6%, 80.3%, 0.42)" stroke-width="1.5"></path><path d="M979.25 379.56L849.26 387.61" stroke="hsla(168.29999999999995, 44.6%, 80.3%, 0.42)" stroke-width="1.5"></path><path d="M979.25 379.56L1127.85 392.35" stroke="hsla(168.29999999999995, 44.6%, 80.3%, 0.42)" stroke-width="1.5"></path><path d="M941.47 683.88L941.47 683.88" stroke="hsla(168.29999999999995, 44.6%, 80.3%, 0.42)" stroke-width="1.5"></path><path d="M941.47 683.88L814.69 661.32" stroke="hsla(168.29999999999995, 44.6%, 80.3%, 0.42)" stroke-width="1.5"></path><path d="M941.47 683.88L858.68 542.35" stroke="hsla(168.29999999999995, 44.6%, 80.3%, 0.42)" stroke-width="1.5"></path><path d="M1127.85 392.35L1127.85 392.35" stroke="hsla(168.29999999999995, 44.6%, 80.3%, 0.42)" stroke-width="1.5"></path><path d="M1127.85 392.35L1147.09 495.15" stroke="hsla(168.29999999999995, 44.6%, 80.3%, 0.42)" stroke-width="1.5"></path><path d="M1127.85 392.35L1091.08 236.34" stroke="hsla(168.29999999999995, 44.6%, 80.3%, 0.42)" stroke-width="1.5"></path><path d="M1127.85 392.35L1001.12 491.22" stroke="hsla(168.29999999999995, 44.6%, 80.3%, 0.42)" stroke-width="1.5"></path><path d="M1127.85 392.35L1302.07 390.26" stroke="hsla(168.29999999999995, 44.6%, 80.3%, 0.42)" stroke-width="1.5"></path><path d="M1295.8 -57.84L1295.8 -57.84" stroke="hsla(168.29999999999995, 44.6%, 80.3%, 0.42)" stroke-width="1.5"></path><path d="M1295.8 -57.84L1297.29 80.91" stroke="hsla(168.29999999999995, 44.6%, 80.3%, 0.42)" stroke-width="1.5"></path><path d="M1295.8 -57.84L1456.38 -83.25" stroke="hsla(168.29999999999995, 44.6%, 80.3%, 0.42)" stroke-width="1.5"></path><path d="M1284.73 213.67L1284.73 213.67" stroke="hsla(168.29999999999995, 44.6%, 80.3%, 0.42)" stroke-width="1.5"></path><path d="M1284.73 213.67L1297.29 80.91" stroke="hsla(168.29999999999995, 44.6%, 80.3%, 0.42)" stroke-width="1.5"></path><path d="M1284.73 213.67L1433.77 251.55" stroke="hsla(168.29999999999995, 44.6%, 80.3%, 0.42)" stroke-width="1.5"></path><path d="M1284.73 213.67L1302.07 390.26" stroke="hsla(168.29999999999995, 44.6%, 80.3%, 0.42)" stroke-width="1.5"></path><path d="M1269.08 527.79L1269.08 527.79" stroke="hsla(168.29999999999995, 44.6%, 80.3%, 0.42)" stroke-width="1.5"></path><path d="M1269.08 527.79L1147.09 495.15" stroke="hsla(168.29999999999995, 44.6%, 80.3%, 0.42)" stroke-width="1.5"></path><path d="M1269.08 527.79L1302.07 390.26" stroke="hsla(168.29999999999995, 44.6%, 80.3%, 0.42)" stroke-width="1.5"></path><path d="M1269.08 527.79L1288.83 686.23" stroke="hsla(168.29999999999995, 44.6%, 80.3%, 0.42)" stroke-width="1.5"></path><path d="M1269.08 527.79L1441.94 540.1" stroke="hsla(168.29999999999995, 44.6%, 80.3%, 0.42)" stroke-width="1.5"></path><path d="M1269.08 527.79L1127.85 392.35" stroke="hsla(168.29999999999995, 44.6%, 80.3%, 0.42)" stroke-width="1.5"></path><path d="M1562.22 526.97L1562.22 526.97" stroke="hsla(168.29999999999995, 44.6%, 80.3%, 0.42)" stroke-width="1.5"></path><path d="M1562.22 526.97L1441.94 540.1" stroke="hsla(168.29999999999995, 44.6%, 80.3%, 0.42)" stroke-width="1.5"></path><path d="M1562.22 526.97L1541.55 370.84" stroke="hsla(168.29999999999995, 44.6%, 80.3%, 0.42)" stroke-width="1.5"></path><path d="M1562.22 526.97L1444.7 707.46" stroke="hsla(168.29999999999995, 44.6%, 80.3%, 0.42)" stroke-width="1.5"></path><path d="M75.59 497.8L75.59 497.8" stroke="hsla(168.29999999999995, 44.6%, 80.3%, 0.42)" stroke-width="1.5"></path><path d="M75.59 497.8L49.86 651.41" stroke="hsla(168.29999999999995, 44.6%, 80.3%, 0.42)" stroke-width="1.5"></path><path d="M75.59 497.8L239.16 526.9" stroke="hsla(168.29999999999995, 44.6%, 80.3%, 0.42)" stroke-width="1.5"></path><path d="M75.59 497.8L206.93 683.99" stroke="hsla(168.29999999999995, 44.6%, 80.3%, 0.42)" stroke-width="1.5"></path><path d="M49.86 651.41L49.86 651.41" stroke="hsla(168.29999999999995, 44.6%, 80.3%, 0.42)" stroke-width="1.5"></path><path d="M239.16 526.9L239.16 526.9" stroke="hsla(168.29999999999995, 44.6%, 80.3%, 0.42)" stroke-width="1.5"></path><path d="M239.16 526.9L349.85 549.38" stroke="hsla(168.29999999999995, 44.6%, 80.3%, 0.42)" stroke-width="1.5"></path><path d="M239.16 526.9L206.93 683.99" stroke="hsla(168.29999999999995, 44.6%, 80.3%, 0.42)" stroke-width="1.5"></path><path d="M206.93 683.99L206.93 683.99" stroke="hsla(168.29999999999995, 44.6%, 80.3%, 0.42)" stroke-width="1.5"></path><path d="M206.93 683.99L49.86 651.41" stroke="hsla(168.29999999999995, 44.6%, 80.3%, 0.42)" stroke-width="1.5"></path><path d="M206.93 683.99L393.05 699.22" stroke="hsla(168.29999999999995, 44.6%, 80.3%, 0.42)" stroke-width="1.5"></path><path d="M206.93 683.99L349.85 549.38" stroke="hsla(168.29999999999995, 44.6%, 80.3%, 0.42)" stroke-width="1.5"></path><path d="M349.85 549.38L349.85 549.38" stroke="hsla(168.29999999999995, 44.6%, 80.3%, 0.42)" stroke-width="1.5"></path><path d="M349.85 549.38L393.05 699.22" stroke="hsla(168.29999999999995, 44.6%, 80.3%, 0.42)" stroke-width="1.5"></path><path d="M349.85 549.38L509.49 542.42" stroke="hsla(168.29999999999995, 44.6%, 80.3%, 0.42)" stroke-width="1.5"></path><path d="M393.05 699.22L393.05 699.22" stroke="hsla(168.29999999999995, 44.6%, 80.3%, 0.42)" stroke-width="1.5"></path><path d="M393.05 699.22L555.51 700.4" stroke="hsla(168.29999999999995, 44.6%, 80.3%, 0.42)" stroke-width="1.5"></path><path d="M393.05 699.22L509.49 542.42" stroke="hsla(168.29999999999995, 44.6%, 80.3%, 0.42)" stroke-width="1.5"></path><path d="M509.49 542.42L509.49 542.42" stroke="hsla(168.29999999999995, 44.6%, 80.3%, 0.42)" stroke-width="1.5"></path><path d="M555.51 700.4L555.51 700.4" stroke="hsla(168.29999999999995, 44.6%, 80.3%, 0.42)" stroke-width="1.5"></path><path d="M555.51 700.4L668.71 645.37" stroke="hsla(168.29999999999995, 44.6%, 80.3%, 0.42)" stroke-width="1.5"></path><path d="M555.51 700.4L509.49 542.42" stroke="hsla(168.29999999999995, 44.6%, 80.3%, 0.42)" stroke-width="1.5"></path><path d="M555.51 700.4L681.6 546.91" stroke="hsla(168.29999999999995, 44.6%, 80.3%, 0.42)" stroke-width="1.5"></path><path d="M555.51 700.4L349.85 549.38" stroke="hsla(168.29999999999995, 44.6%, 80.3%, 0.42)" stroke-width="1.5"></path><path d="M681.6 546.91L681.6 546.91" stroke="hsla(168.29999999999995, 44.6%, 80.3%, 0.42)" stroke-width="1.5"></path><path d="M681.6 546.91L668.71 645.37" stroke="hsla(168.29999999999995, 44.6%, 80.3%, 0.42)" stroke-width="1.5"></path><path d="M681.6 546.91L509.49 542.42" stroke="hsla(168.29999999999995, 44.6%, 80.3%, 0.42)" stroke-width="1.5"></path><path d="M681.6 546.91L814.69 661.32" stroke="hsla(168.29999999999995, 44.6%, 80.3%, 0.42)" stroke-width="1.5"></path><path d="M681.6 546.91L858.68 542.35" stroke="hsla(168.29999999999995, 44.6%, 80.3%, 0.42)" stroke-width="1.5"></path><path d="M668.71 645.37L668.71 645.37" stroke="hsla(168.29999999999995, 44.6%, 80.3%, 0.42)" stroke-width="1.5"></path><path d="M668.71 645.37L814.69 661.32" stroke="hsla(168.29999999999995, 44.6%, 80.3%, 0.42)" stroke-width="1.5"></path><path d="M668.71 645.37L509.49 542.42" stroke="hsla(168.29999999999995, 44.6%, 80.3%, 0.42)" stroke-width="1.5"></path><path d="M668.71 645.37L858.68 542.35" stroke="hsla(168.29999999999995, 44.6%, 80.3%, 0.42)" stroke-width="1.5"></path><path d="M849.26 387.61L849.26 387.61" stroke="hsla(168.29999999999995, 44.6%, 80.3%, 0.42)" stroke-width="1.5"></path><path d="M849.26 387.61L858.68 542.35" stroke="hsla(168.29999999999995, 44.6%, 80.3%, 0.42)" stroke-width="1.5"></path><path d="M849.26 387.61L1001.12 491.22" stroke="hsla(168.29999999999995, 44.6%, 80.3%, 0.42)" stroke-width="1.5"></path><path d="M858.68 542.35L858.68 542.35" stroke="hsla(168.29999999999995, 44.6%, 80.3%, 0.42)" stroke-width="1.5"></path><path d="M858.68 542.35L814.69 661.32" stroke="hsla(168.29999999999995, 44.6%, 80.3%, 0.42)" stroke-width="1.5"></path><path d="M858.68 542.35L1001.12 491.22" stroke="hsla(168.29999999999995, 44.6%, 80.3%, 0.42)" stroke-width="1.5"></path><path d="M814.69 661.32L814.69 661.32" stroke="hsla(168.29999999999995, 44.6%, 80.3%, 0.42)" stroke-width="1.5"></path><path d="M814.69 661.32L1001.12 491.22" stroke="hsla(168.29999999999995, 44.6%, 80.3%, 0.42)" stroke-width="1.5"></path><path d="M1001.12 491.22L1001.12 491.22" stroke="hsla(168.29999999999995, 44.6%, 80.3%, 0.42)" stroke-width="1.5"></path><path d="M1001.12 491.22L1147.09 495.15" stroke="hsla(168.29999999999995, 44.6%, 80.3%, 0.42)" stroke-width="1.5"></path><path d="M1154.38 54.95L1154.38 54.95" stroke="hsla(168.29999999999995, 44.6%, 80.3%, 0.42)" stroke-width="1.5"></path><path d="M1154.38 54.95L1297.29 80.91" stroke="hsla(168.29999999999995, 44.6%, 80.3%, 0.42)" stroke-width="1.5"></path><path d="M1154.38 54.95L1295.8 -57.84" stroke="hsla(168.29999999999995, 44.6%, 80.3%, 0.42)" stroke-width="1.5"></path><path d="M1091.08 236.34L1091.08 236.34" stroke="hsla(168.29999999999995, 44.6%, 80.3%, 0.42)" stroke-width="1.5"></path><path d="M1091.08 236.34L979.25 379.56" stroke="hsla(168.29999999999995, 44.6%, 80.3%, 0.42)" stroke-width="1.5"></path><path d="M1091.08 236.34L1154.38 54.95" stroke="hsla(168.29999999999995, 44.6%, 80.3%, 0.42)" stroke-width="1.5"></path><path d="M1147.09 495.15L1147.09 495.15" stroke="hsla(168.29999999999995, 44.6%, 80.3%, 0.42)" stroke-width="1.5"></path><path d="M1122.3 664.79L1122.3 664.79" stroke="hsla(168.29999999999995, 44.6%, 80.3%, 0.42)" stroke-width="1.5"></path><path d="M1122.3 664.79L1288.83 686.23" stroke="hsla(168.29999999999995, 44.6%, 80.3%, 0.42)" stroke-width="1.5"></path><path d="M1122.3 664.79L1147.09 495.15" stroke="hsla(168.29999999999995, 44.6%, 80.3%, 0.42)" stroke-width="1.5"></path><path d="M1122.3 664.79L941.47 683.88" stroke="hsla(168.29999999999995, 44.6%, 80.3%, 0.42)" stroke-width="1.5"></path><path d="M1122.3 664.79L1269.08 527.79" stroke="hsla(168.29999999999995, 44.6%, 80.3%, 0.42)" stroke-width="1.5"></path><path d="M1122.3 664.79L1001.12 491.22" stroke="hsla(168.29999999999995, 44.6%, 80.3%, 0.42)" stroke-width="1.5"></path><path d="M1297.29 80.91L1297.29 80.91" stroke="hsla(168.29999999999995, 44.6%, 80.3%, 0.42)" stroke-width="1.5"></path><path d="M1297.29 80.91L1435.23 100.69" stroke="hsla(168.29999999999995, 44.6%, 80.3%, 0.42)" stroke-width="1.5"></path><path d="M1302.07 390.26L1302.07 390.26" stroke="hsla(168.29999999999995, 44.6%, 80.3%, 0.42)" stroke-width="1.5"></path><path d="M1288.83 686.23L1288.83 686.23" stroke="hsla(168.29999999999995, 44.6%, 80.3%, 0.42)" stroke-width="1.5"></path><path d="M1288.83 686.23L1444.7 707.46" stroke="hsla(168.29999999999995, 44.6%, 80.3%, 0.42)" stroke-width="1.5"></path><path d="M1288.83 686.23L1441.94 540.1" stroke="hsla(168.29999999999995, 44.6%, 80.3%, 0.42)" stroke-width="1.5"></path><path d="M1288.83 686.23L1147.09 495.15" stroke="hsla(168.29999999999995, 44.6%, 80.3%, 0.42)" stroke-width="1.5"></path><path d="M1288.83 686.23L1302.07 390.26" stroke="hsla(168.29999999999995, 44.6%, 80.3%, 0.42)" stroke-width="1.5"></path><path d="M1456.38 -83.25L1456.38 -83.25" stroke="hsla(168.29999999999995, 44.6%, 80.3%, 0.42)" stroke-width="1.5"></path><path d="M1456.38 -83.25L1568.15 -102.12" stroke="hsla(168.29999999999995, 44.6%, 80.3%, 0.42)" stroke-width="1.5"></path><path d="M1456.38 -83.25L1435.23 100.69" stroke="hsla(168.29999999999995, 44.6%, 80.3%, 0.42)" stroke-width="1.5"></path><path d="M1456.38 -83.25L1576.27 111.15" stroke="hsla(168.29999999999995, 44.6%, 80.3%, 0.42)" stroke-width="1.5"></path><path d="M1456.38 -83.25L1297.29 80.91" stroke="hsla(168.29999999999995, 44.6%, 80.3%, 0.42)" stroke-width="1.5"></path><path d="M1456.38 -83.25L1577.34 224.14" stroke="hsla(168.29999999999995, 44.6%, 80.3%, 0.42)" stroke-width="1.5"></path><path d="M1435.23 100.69L1435.23 100.69" stroke="hsla(168.29999999999995, 44.6%, 80.3%, 0.42)" stroke-width="1.5"></path><path d="M1435.23 100.69L1576.27 111.15" stroke="hsla(168.29999999999995, 44.6%, 80.3%, 0.42)" stroke-width="1.5"></path><path d="M1433.77 251.55L1433.77 251.55" stroke="hsla(168.29999999999995, 44.6%, 80.3%, 0.42)" stroke-width="1.5"></path><path d="M1433.77 251.55L1577.34 224.14" stroke="hsla(168.29999999999995, 44.6%, 80.3%, 0.42)" stroke-width="1.5"></path><path d="M1433.77 251.55L1435.23 100.69" stroke="hsla(168.29999999999995, 44.6%, 80.3%, 0.42)" stroke-width="1.5"></path><path d="M1441.94 540.1L1441.94 540.1" stroke="hsla(168.29999999999995, 44.6%, 80.3%, 0.42)" stroke-width="1.5"></path><path d="M1441.94 540.1L1444.7 707.46" stroke="hsla(168.29999999999995, 44.6%, 80.3%, 0.42)" stroke-width="1.5"></path><path d="M1444.7 707.46L1444.7 707.46" stroke="hsla(168.29999999999995, 44.6%, 80.3%, 0.42)" stroke-width="1.5"></path><path d="M1568.15 -102.12L1568.15 -102.12" stroke="hsla(168.29999999999995, 44.6%, 80.3%, 0.42)" stroke-width="1.5"></path><path d="M1568.15 -102.12L1576.27 111.15" stroke="hsla(168.29999999999995, 44.6%, 80.3%, 0.42)" stroke-width="1.5"></path><path d="M1568.15 -102.12L1435.23 100.69" stroke="hsla(168.29999999999995, 44.6%, 80.3%, 0.42)" stroke-width="1.5"></path><path d="M1568.15 -102.12L1295.8 -57.84" stroke="hsla(168.29999999999995, 44.6%, 80.3%, 0.42)" stroke-width="1.5"></path><path d="M1576.27 111.15L1576.27 111.15" stroke="hsla(168.29999999999995, 44.6%, 80.3%, 0.42)" stroke-width="1.5"></path><path d="M1576.27 111.15L1577.34 224.14" stroke="hsla(168.29999999999995, 44.6%, 80.3%, 0.42)" stroke-width="1.5"></path><path d="M1576.27 111.15L1433.77 251.55" stroke="hsla(168.29999999999995, 44.6%, 80.3%, 0.42)" stroke-width="1.5"></path><path d="M1577.34 224.14L1577.34 224.14" stroke="hsla(168.29999999999995, 44.6%, 80.3%, 0.42)" stroke-width="1.5"></path><path d="M1577.34 224.14L1541.55 370.84" stroke="hsla(168.29999999999995, 44.6%, 80.3%, 0.42)" stroke-width="1.5"></path><path d="M1577.34 224.14L1435.23 100.69" stroke="hsla(168.29999999999995, 44.6%, 80.3%, 0.42)" stroke-width="1.5"></path><path d="M1577.34 224.14L1284.73 213.67" stroke="hsla(168.29999999999995, 44.6%, 80.3%, 0.42)" stroke-width="1.5"></path><path d="M1541.55 370.84L1541.55 370.84" stroke="hsla(168.29999999999995, 44.6%, 80.3%, 0.42)" stroke-width="1.5"></path><path d="M1541.55 370.84L1433.77 251.55" stroke="hsla(168.29999999999995, 44.6%, 80.3%, 0.42)" stroke-width="1.5"></path><path d="M1541.55 370.84L1441.94 540.1" stroke="hsla(168.29999999999995, 44.6%, 80.3%, 0.42)" stroke-width="1.5"></path><path d="M1541.55 370.84L1302.07 390.26" stroke="hsla(168.29999999999995, 44.6%, 80.3%, 0.42)" stroke-width="1.5"></path><path d="M1541.55 370.84L1576.27 111.15" stroke="hsla(168.29999999999995, 44.6%, 80.3%, 0.42)" stroke-width="1.5"></path><circle r="25" cx="-84.87" cy="685.24" fill="url(#SvgjsRadialGradient1011)"></circle><circle r="25" cx="561.63" cy="405.74" fill="url(#SvgjsRadialGradient1011)"></circle><circle r="25" cx="979.25" cy="379.56" fill="url(#SvgjsRadialGradient1011)"></circle><circle r="25" cx="941.47" cy="683.88" fill="url(#SvgjsRadialGradient1011)"></circle><circle r="25" cx="1127.85" cy="392.35" fill="url(#SvgjsRadialGradient1011)"></circle><circle r="25" cx="1295.8" cy="-57.84" fill="url(#SvgjsRadialGradient1011)"></circle><circle r="25" cx="1284.73" cy="213.67" fill="url(#SvgjsRadialGradient1011)"></circle><circle r="25" cx="1269.08" cy="527.79" fill="url(#SvgjsRadialGradient1011)"></circle><circle r="25" cx="1562.22" cy="526.97" fill="url(#SvgjsRadialGradient1011)"></circle><circle r="5" cx="75.59" cy="497.8" fill="rgba(225, 244, 240, 0.71)"></circle><circle r="5" cx="49.86" cy="651.41" fill="rgba(225, 244, 240, 0.71)"></circle><circle r="5" cx="239.16" cy="526.9" fill="rgba(225, 244, 240, 0.71)"></circle><circle r="5" cx="206.93" cy="683.99" fill="rgba(225, 244, 240, 0.71)"></circle><circle r="5" cx="349.85" cy="549.38" fill="rgba(225, 244, 240, 0.71)"></circle><circle r="5" cx="393.05" cy="699.22" fill="rgba(225, 244, 240, 0.71)"></circle><circle r="5" cx="509.49" cy="542.42" fill="rgba(225, 244, 240, 0.71)"></circle><circle r="5" cx="555.51" cy="700.4" fill="rgba(225, 244, 240, 0.71)"></circle><circle r="5" cx="681.6" cy="546.91" fill="rgba(225, 244, 240, 0.71)"></circle><circle r="5" cx="668.71" cy="645.37" fill="rgba(225, 244, 240, 0.71)"></circle><circle r="5" cx="849.26" cy="387.61" fill="rgba(225, 244, 240, 0.71)"></circle><circle r="5" cx="858.68" cy="542.35" fill="rgba(225, 244, 240, 0.71)"></circle><circle r="5" cx="814.69" cy="661.32" fill="rgba(225, 244, 240, 0.71)"></circle><circle r="5" cx="1001.12" cy="491.22" fill="rgba(225, 244, 240, 0.71)"></circle><circle r="5" cx="1154.38" cy="54.95" fill="rgba(225, 244, 240, 0.71)"></circle><circle r="5" cx="1091.08" cy="236.34" fill="rgba(225, 244, 240, 0.71)"></circle><circle r="5" cx="1147.09" cy="495.15" fill="rgba(225, 244, 240, 0.71)"></circle><circle r="5" cx="1122.3" cy="664.79" fill="rgba(225, 244, 240, 0.71)"></circle><circle r="5" cx="1297.29" cy="80.91" fill="rgba(225, 244, 240, 0.71)"></circle><circle r="5" cx="1302.07" cy="390.26" fill="rgba(225, 244, 240, 0.71)"></circle><circle r="5" cx="1288.83" cy="686.23" fill="rgba(225, 244, 240, 0.71)"></circle><circle r="5" cx="1456.38" cy="-83.25" fill="rgba(225, 244, 240, 0.71)"></circle><circle r="5" cx="1435.23" cy="100.69" fill="rgba(225, 244, 240, 0.71)"></circle><circle r="5" cx="1433.77" cy="251.55" fill="rgba(225, 244, 240, 0.71)"></circle><circle r="5" cx="1441.94" cy="540.1" fill="rgba(225, 244, 240, 0.71)"></circle><circle r="5" cx="1444.7" cy="707.46" fill="rgba(225, 244, 240, 0.71)"></circle><circle r="5" cx="1568.15" cy="-102.12" fill="rgba(225, 244, 240, 0.71)"></circle><circle r="5" cx="1576.27" cy="111.15" fill="rgba(225, 244, 240, 0.71)"></circle><circle r="5" cx="1577.34" cy="224.14" fill="rgba(225, 244, 240, 0.71)"></circle><circle r="5" cx="1541.55" cy="370.84" fill="rgba(225, 244, 240, 0.71)"></circle></g><defs><mask id="SvgjsMask1010"><rect width="1440" height="560" fill="#ffffff"></rect></mask><radialGradient id="SvgjsRadialGradient1011"><stop stop-color="#ffffff" offset="0.1"></stop><stop stop-color="rgba(114, 201, 184, 0.42)" offset="0.2"></stop><stop stop-color="rgba(114, 201, 184, 0)" offset="1"></stop></radialGradient></defs></svg>