<svg xmlns="http://www.w3.org/2000/svg" version="1.1" xmlns:xlink="http://www.w3.org/1999/xlink" xmlns:svgjs="http://svgjs.com/svgjs" width="1440" height="60" preserveAspectRatio="none" viewBox="0 0 1440 60"><g mask="url(&quot;#SvgjsMask1268&quot;)" fill="none"><rect width="1440" height="60" x="0" y="0" fill="rgba(114, 201, 184, 1)"></rect><path d="M0,483.87C94.679,489.564,193.12,475.923,272.173,423.51C350.723,371.43,383.27,277.938,432.143,197.353C488.077,105.125,606.27,21.176,579.557,-83.328C552.065,-190.88,403.221,-206.817,312.482,-270.767C246.747,-317.095,196.666,-384.34,119.642,-407.462C42.361,-430.661,-39.135,-419.456,-117.396,-399.815C-198.254,-379.523,-275.77,-348.411,-337.76,-292.671C-405.304,-231.937,-462.551,-157.797,-484.558,-69.669C-507.821,23.487,-506.939,126.034,-463.73,211.779C-421.151,296.274,-333.524,344.109,-251.917,391.991C-173.231,438.16,-91.066,478.393,0,483.87" fill="#5bc0ad"></path><path d="M1440 603.91C1542.605 596.707 1576.285 458.193 1649.4279999999999 385.877 1704.371 331.555 1772.4279999999999 295.448 1816.309 231.855 1867.199 158.10500000000002 1932.826 79.644 1922.125-9.319000000000003 1911.405-98.44399999999999 1816.022-147.33 1762.07-219.075 1703.031-297.583 1679.815-411.104 1590.025-450.94 1498.713-491.451 1391.45-459.22900000000004 1297.5430000000001-425.164 1207.596-392.536 1137.221-328.504 1068.623-261.8 994.0699999999999-189.305 891.88-123.78200000000001 881.225-20.340000000000003 870.581 82.988 952.961 170.924 1015.505 253.86 1067.587 322.923 1144.047 361.637 1210.783 416.669 1288.472 480.734 1339.55 610.961 1440 603.91" fill="#89d2c4"></path></g><defs><mask id="SvgjsMask1268"><rect width="1440" height="60" fill="#ffffff"></rect></mask></defs></svg>